# xmcd
#
# Track frame offsets: 
#        150
#        35137
#        47233
#        61282
#        77278
#        97111
#        123587
#        147274
#        166154
#        182329
#        199668
#
# Disc length: 2959 seconds
#
# Revision: 0
# Processed by: cddbd v1.5.2PL0 Copyright (c) Steve Scherf et al.
# Submitted via: ExactAudioCopyFreeDBPlugin 1.0
#
DISCID=920b8d0b
DTITLE=Chubby Checker - Chequered!
DYEAR=1971
DGENRE=Soul
TTITLE0=How Does It Feel?
TTITLE1=Stoned In The Bathroom
TTITLE2=No Need To Get So Heavy
TTITLE3=Let's Go Down
TTITLE4=My Mind
TTITLE5=Goodbye Victoria
TTITLE6=Love Tunnel
TTITLE7=Slow Lovin'
TTITLE8=He Died
TTITLE9=If The Sun Stopped Shining
TTITLE10=Gypsy
EXTD=
EXTT0=
EXTT1=
EXTT2=
EXTT3=
EXTT4=
EXTT5=
EXTT6=
EXTT7=
EXTT8=
EXTT9=
EXTT10=
PLAYORDER=
